<svg width="220" height="40" viewBox="0 0 220 40" fill="none" xmlns="http://www.w3.org/2000/svg"><path d="M122.842 9.597l2.725-8.728A3994.33 3994.33 0 0 1 94.144.62L82.5 37.85c10.323-.455 20.935-.744 31.794-.91l2.065-6.577H95.548l1.982-6.329h20.068l2.518-8.066h-20.067l1.982-6.329h20.811v-.041zM155.544.869l-6.978 22.213L141.67.91h-12.883l-11.272 35.988c3.262-.042 6.565-.042 9.91-.042h.536l6.359-20.227 6.4 20.31c4.666.041 9.291.165 13.874.29L165.991.826c-3.469 0-6.979.042-10.447.042zM169.17.786L157.732 37.27l10.571.372L179.906.662c-3.592.083-7.144.083-10.736.124zm27.995 11.582L193.78.496c-3.841.042-7.639.124-11.479.166l5.739 19.4-16.682 17.704c3.717.166 7.433.331 11.108.538l10.116-11.251 3.303 12.037c4.006.248 7.97.538 11.892.869l-6.235-19.938L220 0l-11.768.248-11.067 12.12zM87.991 10.01L90.964.58C80.518.413 70.112.247 59.707 0L47.154 40c3.593-.29 7.268-.538 10.942-.786l4.295-13.733h19.778l2.725-8.728H65.157l2.106-6.743h20.728z" fill="#000"/><path d="M32.992 11.169A592.76 592.76 0 0 1 47.196 0H0a44.26 44.26 0 0 1 3.964 11.169h29.028z" fill="#EBE100"/><path d="M15.856 25.564a447.727 447.727 0 0 1 6.441-5.585 399.08 399.08 0 0 1 6.69-5.584H4.5c.206 1.737.372 3.599.372 5.543 0 1.986-.124 3.847-.372 5.584h11.355v.042z" fill="#F00"/><path d="M3.964 28.831A44.261 44.261 0 0 1 0 40c3.881-3.681 7.97-7.404 12.18-11.169H3.965z" fill="#6E0AF5"/></svg>